<svg xmlns="http://www.w3.org/2000/svg" xmlns:xlink="http://www.w3.org/1999/xlink" viewBox="-0.19999980926513672 19.799999237060547 370.8000183105469 159.74888610839844" width="464.2286119715897" height="200"><path d="M 131.200,166.400 C 133.632,160.113 133.200,160.000 135.200,153.600" stroke-width="4.915" stroke="black" fill="none" stroke-linecap="round"></path><path d="M 135.200,153.600 C 138.432,138.407 138.832,138.513 141.600,123.200" stroke-width="2.341" stroke="black" fill="none" stroke-linecap="round"></path><path d="M 141.600,123.200 C 143.741,109.430 144.432,109.607 147.200,96.000" stroke-width="2.194" stroke="black" fill="none" stroke-linecap="round"></path><path d="M 147.200,96.000 C 151.305,83.232 150.541,83.030 155.200,70.400" stroke-width="2.186" stroke="black" fill="none" stroke-linecap="round"></path><path d="M 155.200,70.400 C 158.124,60.834 158.105,60.832 160.800,51.200" stroke-width="2.397" stroke="black" fill="none" stroke-linecap="round"></path><path d="M 160.800,51.200 C 162.000,46.400 162.124,46.434 163.200,41.600" stroke-width="3.105" stroke="black" fill="none" stroke-linecap="round"></path><path d="M 163.200,41.600 C 163.894,34.445 164.000,38.400 164.800,35.200" stroke-width="3.671" stroke="black" fill="none" stroke-linecap="round"></path><path d="M 164.800,35.200 C 166.506,40.369 166.294,36.445 168.000,45.600" stroke-width="4.552" stroke="black" fill="none" stroke-linecap="round"></path><path d="M 168.000,45.600 C 170.588,54.353 170.506,54.369 172.800,63.200" stroke-width="3.087" stroke="black" fill="none" stroke-linecap="round"></path><path d="M 172.800,63.200 C 174.938,73.666 175.388,73.553 177.600,84.000" stroke-width="2.646" stroke="black" fill="none" stroke-linecap="round"></path><path d="M 177.600,84.000 C 180.854,100.472 181.738,100.066 186.400,116.000" stroke-width="2.080" stroke="black" fill="none" stroke-linecap="round"></path><path d="M 186.400,116.000 C 189.787,122.536 188.854,122.872 193.600,128.800" stroke-width="2.612" stroke="black" fill="none" stroke-linecap="round"></path><path d="M 193.600,128.800 C 195.657,131.561 195.387,131.736 197.600,134.400" stroke-width="3.452" stroke="black" fill="none" stroke-linecap="round"></path><path d="M 197.600,134.400 C 201.342,138.949 200.857,139.161 204.000,144.000" stroke-width="3.924" stroke="black" fill="none" stroke-linecap="round"></path><path d="M 163.200,42.400 C 167.565,39.934 167.600,40.000 172.000,37.600" stroke-width="4.559" stroke="black" fill="none" stroke-linecap="round"></path><path d="M 172.000,37.600 C 175.060,35.653 175.165,35.934 178.400,34.400" stroke-width="4.121" stroke="black" fill="none" stroke-linecap="round"></path><path d="M 178.400,34.400 C 184.700,31.969 184.660,32.053 191.200,30.400" stroke-width="3.316" stroke="black" fill="none" stroke-linecap="round"></path><path d="M 191.200,30.400 C 197.281,27.110 196.300,29.169 201.600,28.800" stroke-width="3.425" stroke="black" fill="none" stroke-linecap="round"></path><path d="M 201.600,28.800 C 206.378,32.767 206.481,30.710 209.600,37.600" stroke-width="3.913" stroke="black" fill="none" stroke-linecap="round"></path><path d="M 209.600,37.600 C 211.341,40.376 211.178,39.967 211.200,43.200" stroke-width="4.103" stroke="black" fill="none" stroke-linecap="round"></path><path d="M 211.200,43.200 C 211.818,49.526 210.941,48.376 208.800,53.600" stroke-width="4.183" stroke="black" fill="none" stroke-linecap="round"></path><path d="M 208.800,53.600 C 202.774,60.497 203.818,60.326 195.200,64.800" stroke-width="3.076" stroke="black" fill="none" stroke-linecap="round"></path><path d="M 195.200,64.800 C 184.675,70.017 185.174,70.497 173.600,73.600" stroke-width="2.546" stroke="black" fill="none" stroke-linecap="round"></path><path d="M 173.600,73.600 C 157.412,78.963 157.475,78.817 140.800,82.400" stroke-width="2.037" stroke="black" fill="none" stroke-linecap="round"></path><path d="M 140.800,82.400 C 110.643,86.890 111.012,88.563 80.800,92.800" stroke-width="1.342" stroke="black" fill="none" stroke-linecap="round"></path><path d="M 80.800,92.800 C 70.400,95.600 70.243,94.890 60.000,98.400" stroke-width="1.977" stroke="black" fill="none" stroke-linecap="round"></path><path d="M 60.000,98.400 C 45.401,100.279 49.600,101.200 39.200,104.000" stroke-width="2.254" stroke="black" fill="none" stroke-linecap="round"></path><path d="M 39.200,104.000 C 41.148,107.249 37.401,105.079 44.000,108.000" stroke-width="3.684" stroke="black" fill="none" stroke-linecap="round"></path><path d="M 280.000,24.800 C 268.898,27.234 269.200,28.000 258.400,31.200" stroke-width="3.145" stroke="black" fill="none" stroke-linecap="round"></path><path d="M 258.400,31.200 C 250.919,34.311 250.898,34.034 244.000,38.400" stroke-width="2.961" stroke="black" fill="none" stroke-linecap="round"></path><path d="M 244.000,38.400 C 233.086,44.530 233.319,44.711 223.200,52.000" stroke-width="2.453" stroke="black" fill="none" stroke-linecap="round"></path><path d="M 223.200,52.000 C 214.732,58.091 215.086,58.130 208.000,65.600" stroke-width="2.525" stroke="black" fill="none" stroke-linecap="round"></path><path d="M 208.000,65.600 C 204.077,70.000 204.332,69.691 202.400,75.200" stroke-width="3.033" stroke="black" fill="none" stroke-linecap="round"></path><path d="M 202.400,75.200 C 199.735,82.993 200.077,82.400 200.000,90.400" stroke-width="2.915" stroke="black" fill="none" stroke-linecap="round"></path><path d="M 200.000,90.400 C 201.134,94.294 200.135,94.193 203.200,97.600" stroke-width="3.508" stroke="black" fill="none" stroke-linecap="round"></path><path d="M 203.200,97.600 C 205.639,100.367 205.134,100.694 208.000,103.200" stroke-width="3.789" stroke="black" fill="none" stroke-linecap="round"></path><path d="M 208.000,103.200 C 210.077,104.954 209.639,105.167 211.200,107.200" stroke-width="4.147" stroke="black" fill="none" stroke-linecap="round"></path><path d="M 211.200,107.200 C 212.622,109.948 212.477,109.754 212.800,112.800" stroke-width="4.131" stroke="black" fill="none" stroke-linecap="round"></path><path d="M 212.800,112.800 C 214.012,117.205 213.022,116.348 212.000,120.000" stroke-width="3.998" stroke="black" fill="none" stroke-linecap="round"></path><path d="M 212.000,120.000 C 205.591,126.878 206.812,127.205 198.400,132.800" stroke-width="2.975" stroke="black" fill="none" stroke-linecap="round"></path><path d="M 198.400,132.800 C 192.027,138.301 191.991,138.078 184.800,142.400" stroke-width="2.819" stroke="black" fill="none" stroke-linecap="round"></path><path d="M 184.800,142.400 C 165.743,155.427 165.227,153.501 144.800,163.200" stroke-width="1.783" stroke="black" fill="none" stroke-linecap="round"></path><path d="M 144.800,163.200 C 126.212,168.800 126.943,169.827 107.200,171.200" stroke-width="1.690" stroke="black" fill="none" stroke-linecap="round"></path><path d="M 107.200,171.200 C 84.813,172.869 85.012,174.000 62.400,173.600" stroke-width="1.586" stroke="black" fill="none" stroke-linecap="round"></path><path d="M 62.400,173.600 C 48.000,173.600 48.013,174.069 33.600,173.600" stroke-width="1.907" stroke="black" fill="none" stroke-linecap="round"></path><path d="M 33.600,173.600 C 7.884,175.735 19.200,173.600 4.800,173.600" stroke-width="1.977" stroke="black" fill="none" stroke-linecap="round"></path><path d="M 4.800,173.600 C 13.683,168.861 2.684,172.135 23.200,166.400" stroke-width="3.083" stroke="black" fill="none" stroke-linecap="round"></path><path d="M 23.200,166.400 C 37.092,163.121 36.883,162.861 51.200,161.600" stroke-width="2.327" stroke="black" fill="none" stroke-linecap="round"></path><path d="M 51.200,161.600 C 77.959,158.837 77.892,158.721 104.800,157.600" stroke-width="1.489" stroke="black" fill="none" stroke-linecap="round"></path><path d="M 104.800,157.600 C 164.791,155.036 164.759,154.837 224.800,153.600" stroke-width="1.125" stroke="black" fill="none" stroke-linecap="round"></path><path d="M 224.800,153.600 C 248.400,153.600 248.391,153.036 272.000,153.600" stroke-width="1.179" stroke="black" fill="none" stroke-linecap="round"></path><path d="M 272.000,153.600 C 299.600,153.600 299.600,153.600 327.200,153.600" stroke-width="1.277" stroke="black" fill="none" stroke-linecap="round"></path><path d="M 327.200,153.600 C 346.405,153.859 346.400,153.600 365.600,153.600" stroke-width="1.562" stroke="black" fill="none" stroke-linecap="round"></path></svg>